<svg xmlns="http://www.w3.org/2000/svg" viewBox="0 0 12 12">
  <path d="M11.86 3.02c-.08-.1-.2-.16-.32-.16h-2.3V4.1c0 .55-.5 1-1.1 1-.6 0-1.07-.45-1.07-1V2.85H4.9V4.1c0 .55-.48 1-1.07 1s-1.08-.45-1.08-1V2.85H.45C.3 2.85.2 2.9.1 3c-.06.1-.1.23-.1.36l.8 7.14c0 .82.63 1.46 1.4 1.46h7.6c.77 0 1.4-.65 1.4-1.45l.8-7.1c.02-.13-.02-.26-.1-.35z"/>
  <path d="M3.83 4.5c.24 0 .43-.2.43-.4V1.83c0-.63.67-1.02 1.3-1.02h1.08c.65 0 1.07.4 1.07 1.04V4.1c0 .22.2.4.47.4.23 0 .43-.2.43-.4V1.83C8.57.77 7.75 0 6.63 0H5.56C4.36 0 3.4.83 3.4 1.84V4.1c0 .22.2.4.43.4z"/>
</svg>
