<svg xmlns="http://www.w3.org/2000/svg" width="156" height="188"><g fill="#FFF"><circle cx="141.25" cy="68.88" r="14.75"/><path d="M89.1 139.54l-7.06 17.88-22.83 14.92c-2.1 1.23-3.6 3.56-3.6 6.23 0 3.95 3.2 7.16 7.2 7.16 1.6 0 3-.48 4.1-1.3 3.8-2.38 22.4-14.1 25.5-15.9 3.5-2 4.1-5.1 4.1-5.1l4.9-16-5.7-2.64-6.5-5.3z"/><path d="M139.32 141.46s-1.16-3.83-4.58-5.17-18.1-7.8-18.1-7.8l15.43-25.6s3.84-9-.33-13.4S118 79.8 118 79.8h-7.53l15.8-26.8c3.35-5.7 1.44-13.1-4.25-16.44l-49.4-29.1C66.96 4.08 59.56 6 56.2 11.68L9.14 91.5c-3.34 5.7-1.44 13.1 4.26 16.45l49.38 29.1c5.68 3.37 13.08 1.46 16.43-4.23l23-38.9h8.1l-14.7 26.2s-5.12 9.22-.32 14.26c4.2 4.4 12.66 6.9 12.66 6.9l17.25 6.52 5.1 31.3c.56 3.4 3.5 6 7.1 6 3.94 0 7.15-3.2 7.15-7.16 0-.2-.02-.37-.03-.56l-5.1-35.92zM17.96 100.2c-1.4-.83-1.9-2.7-1.06-4.1l47.06-79.84c.82-1.4 2.7-1.9 4.1-1.06L79.58 22l-50.1 85-11.52-6.8zm53.5 28.05c-.83 1.4-2.7 1.9-4.1 1.06l-30.13-17.7 50.1-85 30.12 17.8c1.4.8 1.9 2.7 1.07 4.1l-18.5 31.4h-8.78L71.32 94.3c-.44.25-.85.55-1.23.9H70v.02c-1.44 1.3-2.35 3.2-2.35 5.3 0 3.96 3.2 7.17 7.16 7.17 1.6 0 3-.5 4.2-1.3l.1-.1.5-.46 9.67-7.77-17.8 30.2z"/></g><path fill="#F0C42E" d="M49.22 5.94L2.16 85.77C-1.2 91.47.72 98.85 6.4 102.2l49.4 29.12c5.68 3.35 13.08 1.44 16.43-4.24l47.05-79.83c3.36-5.7 1.45-13.08-4.24-16.44L65.64 1.7C59.98-1.65 52.58.26 49.24 5.94zm-39.3 84.4L56.96 10.5c.83-1.4 2.7-1.87 4.1-1.05l11.53 6.8-50.1 85-11.6-6.8c-1.4-.83-1.9-2.7-1.1-4.1zm101.6-47.66L64.48 122.5c-.82 1.4-2.7 1.9-4.1 1.07L30.25 105.8l50.1-84.98 30.12 17.75c1.4.82 1.9 2.7 1.06 4.1z"/><g fill="#3A3A3A"><circle cx="135.25" cy="63.08" r="14.75"/><path d="M81.88 133.75l-7.08 17.88-22.82 14.9c-2.17 1.24-3.64 3.57-3.64 6.24 0 3.96 3.2 7.17 7.17 7.17 1.6 0 3-.5 4.2-1.3 3.8-2.38 22.4-14.1 25.5-15.9 3.5-2 4.1-5.12 4.1-5.12l4.9-16-5.8-2.62-6.5-5.25zm50.2 1.92s-1.16-3.84-4.58-5.17-18.08-7.75-18.08-7.75l15.4-25.58s3.85-9-.32-13.42S110.75 74 110.75 74H84L64.08 88.43c-.44.25-.85.55-1.23.9h-.03c-1.44 1.32-2.35 3.2-2.35 5.32 0 3.95 3.2 7.16 7.17 7.16 1.54 0 2.97-.4 4.14-1.3h.08l.52-.4 14.75-11.9H103l-14.75 26.2s-5.13 9.25-.33 14.28c4.2 4.4 12.66 6.9 12.66 6.9l17.25 6.5 5.1 31.3c.56 3.4 3.5 6 7.08 6 4 0 7.2-3.2 7.2-7.14v-.53h.1l-5.1-35.9z"/></g></svg>