<svg xmlns="http://www.w3.org/2000/svg" width="136" height="164">
  <path fill="#FFF" d="M93.13 38.77c8.12 0 14.95-5.54 16.9-13.05l5.47.8c.1.03.2.04.32.04 1.05 0 1.97-.77 2.13-1.84.18-1.18-.64-2.28-1.82-2.45l-5.54-.83v-.14c0-.18 0-.36-.1-.54 0 0-.5-6.52-1.1-9.24-.6-2.72-2.6-3.3-2.6-3.3-9.7-2.2-19.7-2.42-22.3-2.42s-3.1 1.3-3.1 1.3l-3.2 5h-.1l-.2.36v.05c-1.5 2.6-2.4 5.6-2.4 8.8 0 9.7 7.82 17.5 17.46 17.5zm38.4 39.3L104.8 75.9l-9.25-21.1s-.46-2.78-6-8.48c-5.56-5.7-16.8-3.4-16.8-3.4S48.85 47.4 41 49.26c-7.86 1.85-8.17 9.86-8.17 9.86l-.63 4.53-15.18-2.94h-.57c-1.4 0-2.67 1-2.95 2.5l-7.4 38.2c-.32 1.7.74 3.2 2.37 3.6l51.2 9.9.34.08c-.7.1-1.2-.04-1.2-.04l-9.4-1.9-3.1 17-23.52 20.33c-1.7 1.36-2.8 3.45-2.8 5.8 0 4.1 3.33 7.43 7.43 7.43 2.05 0 3.9-.84 5.23-2.16 0 0 27.7-22.03 29.5-23.6 1.8-1.52 2.8-3.83 2.8-3.83s4.5-13.94 5.8-16.84c.8-2 4.9-1.1 4.9-1.1l22.9 8.6 7.6 29c.1.63.2 1.23.5 1.8 1.1 2.73 3.73 4.66 6.9 4.66 4.1 0 7.4-3.32 7.4-7.42 0-.6-.1-1.18-.2-1.74-.87-4.96-4.6-27.04-5.6-31.8-1.07-5.4-4.6-6.95-4.6-6.95l-22.7-12.3c-1.4-.8-1.1-2.8-1.1-2.8l3.9-14.32 2.8 5.84s1.6 3.26 4.1 3.4l33.36.8c4.1 0 7.44-3.33 7.44-7.44 0-3.82-3-7-6.8-7.4zM60.1 62.8l-1.8 5.9 9.9 1.9L48 66.7l.55-2.5 11.55-1.4zm-2.25 45.48l-45.3-8.78 6.27-32.35 12.54 2.43-1.62 11.56-.64 4.4v.1l-.03.12c-.03.3-.06.63-.06.95 0 4.1 3.4 7.5 7.5 7.5s7.5-3.3 7.5-7.4v-.9l2.9-13.2L64.2 76l-6.28 32.36zM25.05 17h38.03c1.1 0 2-.9 2-1.98 0-1.1-.9-2-2-2H25.05c-1.1 0-2 .9-2 2s.9 2 2 2zm13.03 6.02c-1.1 0-2 .9-2 2s.9 1.98 2 1.98h22.96c1.1 0 2-.9 2-2 0-1.08-.9-1.98-2-1.98H38.08z"/>
  <path fill="#3A3A3A" d="M87.1 32.73c8.12 0 14.94-5.54 16.9-13.05l5.46.82.32.02c1.06 0 1.98-.77 2.14-1.84.17-1.18-.64-2.27-1.82-2.45l-5.54-.82v-.6s-.46-6.5-1.1-9.2c-.6-2.7-2.52-3.3-2.52-3.3C91.17 0 81.17-.2 78.56-.2S75.4 1.1 75.4 1.1l-3.14 4.98c-.1.12-.16.24-.23.37L72 6.5c-1.5 2.57-2.37 5.57-2.37 8.77 0 9.64 7.82 17.46 17.47 17.46zm38.4 39.3l-26.74-2.16-9.25-21.1s-.4-2.8-6-8.5c-5.5-5.7-16.8-3.37-16.8-3.37S42.9 41.33 35 43.2c-7.86 1.84-8.17 9.85-8.17 9.85L23.7 75.1l-.63 4.42v.08l-.03.12c-.04.32-.06.63-.06.96 0 4.1 3.33 7.42 7.43 7.42s7.5-3.32 7.5-7.42v-.94l4.8-21.58 11.6-1.4-1.8 5.9 9.9 1.9c1.6.32 2.7 1.9 2.38 3.53l-7.4 38.2c-.3 1.4-1.55 2.4-2.96 2.4H54c-.72.1-1.3-.1-1.3-.1l-9.4-1.9-3.06 17.1-23.53 20.4c-1.7 1.3-2.8 3.4-2.8 5.8 0 4.1 3.4 7.4 7.5 7.4 2.1 0 3.9-.8 5.2-2.1 0 0 27.8-22.1 29.6-23.6 1.9-1.6 2.8-3.9 2.8-3.9s4.6-14 5.8-16.9c.9-2 5-1.1 5-1.1l22.9 8.6 7.65 29.05c.08.6.24 1.22.47 1.8 1.1 2.72 3.77 4.64 6.9 4.64 4.1 0 7.4-3.3 7.4-7.4 0-.6-.05-1.2-.2-1.74-.83-4.95-4.6-27.03-5.55-31.8-1.1-5.4-4.63-6.94-4.63-6.94L81.8 93.9c-1.38-.76-1.07-2.76-1.07-2.76l3.93-14.34 2.77 5.86s1.62 3.27 4.1 3.4l33.34.8c4.1 0 7.43-3.3 7.43-7.42 0-3.9-3-7.08-6.8-7.4z"/>
  <path fill="#F0C42E" d="M53.97 108.74l.22.02c1.4 0 2.6-1 2.9-2.43l7.4-38.24c.3-1.7-.8-3.3-2.4-3.6l-20.2-3.9-1.3 5.8L58 69.8l-6.28 32.34-45.3-8.78L12.72 61l12.58 2.5.83-5.95-15.18-2.96c-.2-.1-.38-.1-.57-.1-1.4 0-2.64 1-2.9 2.4L.08 95.3c-.35 1.6.72 3.2 2.34 3.5l51.2 9.93c.1.1.22.1.34.1z"/>
  <path fill="#F0C52E" d="M59.04 8.98c0 1.1-.9 2-2 2H19.02c-1.1 0-2-.9-2-2s.9-2 2-2h38.02c1.1 0 2 .9 2 2zm-2.04 10c0 1.1-.9 2-2 2H32.04c-1.1 0-2-.9-2-2s.9-2 2-2H55c1.1 0 2 .9 2 2z"/>
</svg>
