<svg xmlns="http://www.w3.org/2000/svg" width="32" height="32">
  <g fill="#FFF">
    <path d="M20.92 16c0 2.73-2.22 4.94-4.94 4.94s-4.94-2.2-4.94-4.94c0-.4.05-.77.14-1.14h-.9v6.84h11.4v-6.84h-.9c.08.37.14.75.14 1.14z"/>
    <path d="M15.98 18.66c1.46 0 2.66-1.2 2.66-2.66s-1.2-2.66-2.66-2.66c-1.47 0-2.66 1.2-2.66 2.66s1.2 2.66 2.66 2.66zm2.66-8.36h3.04v3.04h-3.04z"/>
    <path d="M16 0C7.16 0 0 7.16 0 16s7.16 16 16 16 16-7.16 16-16S24.84 0 16 0zm7.95 21.7c0 1.25-1.02 2.28-2.27 2.28h-11.4C9.03 23.98 8 22.95 8 21.7V10.3c0-1.25 1.03-2.28 2.28-2.28h11.4c1.25 0 2.27 1.03 2.27 2.28v11.4z"/>
  </g>
</svg>
