<?xml version="1.0" encoding="UTF-8"?>
<svg enable-background="new 0 0 26.943 34.09" version="1.1" viewBox="0 0 26.943 34.09" xml:space="preserve" xmlns="http://www.w3.org/2000/svg">
  <path d="m13.62 0.017l-0.148-0.017-13.472 1.412v24.661l13.473 8.017 13.43-7.99 0.042-0.025v-24.663l-13.325-1.395zm11.399 12.11l-11.524-6.793-1e-3 -0.104-0.087 0.05-0.088-0.056v0.109l-11.394 6.785v-8.971l11.548-1.212 11.547 1.212v8.98zm-11.614-5.34l11.518 6.713-4.479 2.64-7.093-4.221-0.014 1.415 5.904 3.513-0.86 0.507-5.03-2.992-0.014 1.415 3.827 2.275-0.782 0.523-3.031-1.787-0.014 1.413 1.853 1.091-1.8 1.081-11.356-6.751 11.371-6.835zm-11.48 8.34l11.411 6.791 0.016 1.044-7.942-4.728-0.015 1.416 7.979 4.795 0.018 1.076-7.973-4.74-0.013 1.414 8.021 4.822 0.046 0.025 8.143-4.872-0.011-5.177 3.415-2.036v10.021l-11.548 6.872-11.547-6.871v-9.852z"/>
</svg>
