<svg xmlns="http://www.w3.org/2000/svg" width="56" height="98">
  <path fill="#363636" d="M54.5 32.2h-1.52v-4.64c0-5.05-4.1-9.2-9.08-9.2H9.08c-5 0-9.08 4.14-9.08 9.2v42.87c0 5.05 4.1 9.18 9.08 9.18H43.9c5 0 9.08-4.1 9.08-9.12V67h1.5c.43 0 .77-.33.77-.75V52.47c0-.42-.34-.77-.76-.77h-1.57v-8.8h1.5c.85 0 1.53-.68 1.53-1.52v-7.65c0-.84-.68-1.53-1.5-1.53zm-20.42-3.1c2.93 0 5.3 2.4 5.3 5.35S37 39.8 34.08 39.8s-5.3-2.4-5.3-5.35 2.38-5.36 5.3-5.36zm-15.13 0c2.92 0 5.3 2.4 5.3 5.35s-2.38 5.35-5.3 5.35c-2.93 0-5.3-2.4-5.3-5.35s2.37-5.36 5.3-5.36zM5.3 49.4c0-2.96 2.37-5.36 5.3-5.36 2.92 0 5.3 2.4 5.3 5.36 0 2.96-2.38 5.35-5.3 5.35-2.93 0-5.3-2.4-5.3-5.35zm13.64 19.5c-2.92 0-5.3-2.4-5.3-5.36s2.38-5.36 5.3-5.36c2.93 0 5.3 2.4 5.3 5.36s-2.37 5.35-5.3 5.35zm1.5-19.9c0-3.4 2.7-6.13 6.05-6.13 3.3 0 6 2.74 6 6.12s-2.7 6.1-6.06 6.1c-3.35 0-6.07-2.78-6.07-6.1zm13.64 19.9c-2.92 0-5.3-2.4-5.3-5.36s2.38-5.36 5.3-5.36 5.3 2.4 5.3 5.36-2.37 5.35-5.3 5.35zm8.3-14.14c-2.92 0-5.3-2.4-5.3-5.36 0-2.96 2.38-5.36 5.3-5.36 2.93 0 5.3 2.4 5.3 5.36 0 2.96-2.37 5.36-5.3 5.36zM9.65 15.3h33.68c.85 0 1.44-.67 1.3-1.5l-1.6-10.77C42.76 1.36 41.18 0 39.5 0H13.48c-1.68 0-3.26 1.36-3.5 3.03L8.33 13.8c-.12.83.46 1.5 1.3 1.5zm33.68 67.37H9.65c-.85 0-1.43.68-1.3 1.52l1.6 10.7c.26 1.67 1.84 3.03 3.52 3.03H39.5c1.7 0 3.27-1.36 3.52-3.02l1.62-10.76c.13-.85-.46-1.53-1.3-1.53z"/>
</svg>
