<svg xmlns="http://www.w3.org/2000/svg" width="71" height="87">
  <g fill="#363636">
    <path d="M53.35 1.5c0-.75-.58-1.5-1.3-1.5h-43c-.73 0-1.38.75-1.38 1.5V5h45.68V1.5zm.85 80.3h-9.6V71.44h-6.95v2.5H18.77c-.53-1.25-1.75-2.15-3.18-2.15H3.5c-1.88 0-3.5 1.6-3.5 3.5v3.02c0 1.92 1.64 3.48 3.56 3.48H15.6c1.5 0 2.8-.9 3.26-2.3h18.8v2.36h-9.53c-.53 0-1 .45-1 .98V86c0 .53.47 1.04 1 1.04H54.2c.53 0 .93-.5.93-1.05v-3.2c0-.57-.4-1-.93-1zm6.47-69.4c-.87-2.95-3.57-5.06-6.78-5.06H7.1c-3.9 0-7.15 3.1-7.15 7.02v46.9c0 3.9 3.24 7.12 7.14 7.12h46.8c3.9 0 7.1-3.2 7.1-7.12V50.92c6.06-4.2 10-11.22 10-19.17 0-8.08-4.14-15.18-10.36-19.36zM12.24 62.14c-3.26 0-5.9-2.65-5.9-5.92s2.64-5.92 5.9-5.92 5.9 2.66 5.9 5.93c0 3.27-2.64 5.92-5.9 5.92zm5.96-32.6c0 .78-.64 1.42-1.42 1.42H7.84c-.78 0-1.42-.64-1.42-1.42V15.4c0-.8.64-1.44 1.42-1.44h8.94c.78 0 1.42.64 1.42 1.43v14.1zm29.56 22.3c-11.07 0-20.05-9-20.05-20.12s9-20.12 20.1-20.12c11.1 0 20.08 9.02 20.08 20.13s-9 20.13-20.06 20.13z"/>
    <ellipse cx="47.76" cy="31.73" rx="12.19" ry="12.23"/>
    <circle cx="31.56" cy="31.74" r="1.44"/>
    <circle cx="63.96" cy="31.74" r="1.44"/>
    <circle cx="39.11" cy="17.99" r="1.44"/>
    <ellipse cx="56.41" cy="45.48" rx="1.43" ry="1.44"/>
    <circle cx="55.7" cy="17.57" r="1.44"/>
    <circle cx="39.83" cy="45.91" r="1.44"/>
  </g>
</svg>
