<svg xmlns="http://www.w3.org/2000/svg" width="97" height="55">
  <g fill="#363636">
    <path d="M84.13 32.64V20c0-1.3 1.05-2.37 2.34-2.37l8.32 1.58v-8.17c0-2.35-1.73-3.43-4.2-4.26L67.4.17c1.62 1.4 1.9 2.04 1.9 4.4V49.8c0 2.36-.46 4.07-1.97 5.2l23.26-7.05c2.4-.84 4.2-4.22 4.2-6.58v-7.9L86.45 35c-1.3 0-2.34-1.05-2.34-2.36z"/>
    <path d="M95.13 20.98l-7.6-1.45c-1 0-1.82.83-1.82 1.86v9.84c0 1.03.83 1.86 1.84 1.86l7.6-1.43c1.15-.4 1.82-.82 1.82-1.85v-7c0-1-.76-1.5-1.82-1.84zM67.17 4.48c0-5.08-4.23-4.46-4.23-4.46S5.84 4.74 2.84 5.15 0 9.52 0 9.52V45.8l2.6 3.77 16.48 1.4L27.2 39.3s1.12-1.83 2.52-1.83 2.43 1.86 2.43 1.86l9.06 13.52s18.9 1.9 22.54 1.9c3.63 0 3.44-5 3.44-5V4.47zm-54.2 32.7c-3.7 0-6.68-4.6-6.68-10.26s2.97-10.28 6.67-10.28c3.7 0 6.7 4.6 6.7 10.28s-3 10.27-6.7 10.27zm36.17 1.44c-4.66 0-8.44-5.24-8.44-11.7 0-6.47 3.78-11.7 8.44-11.7s8.44 5.23 8.44 11.7c0 6.46-3.78 11.7-8.44 11.7z"/>
  </g>
</svg>
