<svg xmlns="http://www.w3.org/2000/svg" width="86" height="117">
  <path fill="#363636" d="M82.82 4H3.32C1.58 4 .15 5.45.15 7.2v46.4c0 1.77 1.43 3.2 3.2 3.2H82.8c1.76 0 3.2-1.43 3.2-3.2V7.2C86 5.44 84.57 4 82.8 4zM8.4 37.25h-.23c-1.77 0-3.2-1.43-3.2-3.2v-7.28c0-1.76 1.43-3.18 3.2-3.18h.22v13.64zM69.6 52.4H13.34v-44h56.28v44zm8.78-17.85c-2.3 0-4.15-1.85-4.15-4.14s1.86-4.12 4.15-4.12c2.3 0 4.15 1.85 4.15 4.15s-1.86 4.15-4.15 4.15zM31.5 0h23.16v2.76H31.5zm15.1 64.86V61.9h8.05v-2.77H31.5v2.76h8.04v35.2c-2.14.94-3.63 3.08-3.63 5.56V117h14.36v-14.3c0-2.5-1.5-4.63-3.63-5.56v-28h4.8l5.05 1.22v-6.7l-5.05 1.2h-4.8z"/>
</svg>
