<svg xmlns="http://www.w3.org/2000/svg" width="107" height="65">
  <g fill="#363636">
    <path d="M98.97 4.07c.75 1.44 1.2 3.08 1.2 4.82V30c0 4.6-3.1 8.52-7.24 9.9-1.32 3.98-3.78 7.85-8.05 10.43-8.68 5.23-31.12 4.83-31.2 4.83-.08 0-22.5.4-31.2-4.83-4.2-2.55-6.7-6.35-8.03-10.28C10.03 38.85 6.7 34.8 6.7 30V8.9c0-1.7.42-3.3 1.13-4.7C4.17 5.1 0 6.92 0 10.43v30c0 10.24 11.84 24.42 53.66 24.42 41.82 0 53.65-14.18 53.65-24.43v-30c0-3.67-4.5-5.48-8.3-6.35z"/>
    <path d="M20.56 38.46h65.52c5.57 0 10.08-4.5 10.08-10.08V9.94c0-5.57-4.5-10.08-10.08-10.08H20.56C15-.14 10.5 4.36 10.5 9.94v18.44c0 5.57 4.5 10.08 10.06 10.08zm63.13-29c.8 0 1.5.7 1.5 1.58 0 .86-.7 1.57-1.6 1.57s-1.6-.7-1.6-1.5.7-1.5 1.5-1.5zm0 4.05c.8 0 1.5.7 1.5 1.6 0 .9-.7 1.6-1.6 1.6S82 16 82 15.2c0-.86.7-1.56 1.56-1.56zm0 4.1c.8 0 1.5.7 1.5 1.6 0 .9-.7 1.6-1.6 1.6s-1.6-.7-1.6-1.5.7-1.5 1.5-1.5zm0 3.8c.8 0 1.5.7 1.5 1.6 0 .9-.7 1.6-1.6 1.6s-1.6-.7-1.6-1.5.7-1.5 1.5-1.5zm0 4.1c.8 0 1.5.7 1.5 1.6 0 .9-.7 1.6-1.6 1.6s-1.5-.7-1.5-1.6c0-.8.7-1.5 1.5-1.5zm-4.1-16c.8 0 1.5.7 1.5 1.6 0 .9-.7 1.6-1.6 1.6-.9 0-1.6-.7-1.6-1.5s.7-1.5 1.5-1.5zm0 16c.8 0 1.5.7 1.5 1.6 0 .9-.7 1.6-1.6 1.6-.9 0-1.6-.7-1.6-1.5 0-.83.7-1.53 1.5-1.53zm-4-15.9c.8 0 1.5.7 1.5 1.6 0 .9-.8 1.6-1.6 1.6-.9 0-1.6-.7-1.6-1.53 0-.86.7-1.56 1.5-1.56zm0 4.1c.8 0 1.5.7 1.5 1.6 0 .8-.8 1.5-1.6 1.5-.9 0-1.6-.7-1.6-1.56 0-.87.7-1.57 1.5-1.57zm0 4.08c.8 0 1.5.7 1.5 1.56 0 .88-.8 1.58-1.6 1.58-.9 0-1.6-.7-1.6-1.5 0-.83.7-1.53 1.5-1.53zm0 3.8c.8 0 1.5.7 1.5 1.5 0 .9-.8 1.6-1.6 1.6-.9 0-1.6-.7-1.6-1.57 0-.82.7-1.53 1.5-1.53zm0 4c.8 0 1.5.7 1.5 1.6 0 .85-.8 1.55-1.6 1.55-.9 0-1.6-.7-1.6-1.6 0-.84.7-1.54 1.5-1.54zm-7.7-16c.8 0 1.5.7 1.5 1.58 0 .87-.7 1.58-1.58 1.58s-1.5-.7-1.5-1.55c0-.88.7-1.58 1.5-1.58zm0 8.1c.8 0 1.5.7 1.5 1.55 0 .88-.7 1.58-1.58 1.58s-1.5-.7-1.5-1.56c0-.85.7-1.55 1.5-1.55zm0 3.87c.8 0 1.5.7 1.5 1.56 0 .86-.7 1.56-1.58 1.56s-1.5-.7-1.5-1.55c0-.87.7-1.57 1.5-1.57zm0 3.98c.8 0 1.5.7 1.5 1.6 0 .86-.7 1.56-1.58 1.56s-1.5-.7-1.5-1.6c0-.9.7-1.6 1.54-1.6zm-4-15.95c.8 0 1.5.7 1.5 1.58 0 .86-.7 1.57-1.5 1.57-.9 0-1.6-.7-1.6-1.57 0-.87.7-1.57 1.5-1.57zm0 8.1c.8 0 1.5.7 1.5 1.55 0 .87-.7 1.57-1.5 1.57-.9 0-1.6-.7-1.6-1.57 0-.84.7-1.54 1.5-1.54zm0 7.85c.8 0 1.5.7 1.5 1.57 0 .87-.7 1.57-1.5 1.57-.9 0-1.6-.7-1.6-1.56 0-.86.7-1.56 1.5-1.56zm-4-15.95c.8 0 1.5.7 1.5 1.57 0 .86-.7 1.57-1.6 1.57-.9 0-1.6-.7-1.6-1.57 0-.86.7-1.56 1.5-1.56zm0 4.04c.8 0 1.5.7 1.5 1.56 0 .8-.7 1.5-1.6 1.5-.9 0-1.6-.7-1.6-1.6 0-.9.7-1.6 1.5-1.6zm0 4.04c.8 0 1.5.7 1.5 1.55 0 .87-.7 1.57-1.6 1.57-.9 0-1.6-.7-1.6-1.5s.7-1.5 1.5-1.5zm0 7.85c.8 0 1.5.7 1.5 1.57 0 .9-.7 1.6-1.6 1.6-.9 0-1.6-.7-1.6-1.5s.7-1.5 1.5-1.5zm-8.3-16c.82 0 1.53.7 1.53 1.57 0 .86-.7 1.57-1.57 1.57-.88 0-1.58-.7-1.58-1.56 0-.87.7-1.57 1.56-1.57zm0 4.04c.82 0 1.53.7 1.53 1.57 0 .8-.7 1.5-1.57 1.5-.88 0-1.58-.7-1.58-1.6 0-.9.7-1.6 1.56-1.6zm0 4.05c.82 0 1.53.7 1.53 1.54 0 .88-.7 1.58-1.57 1.58-.88 0-1.58-.7-1.58-1.5s.7-1.5 1.56-1.5zm0 3.86c.82 0 1.53.7 1.53 1.56 0 .9-.7 1.6-1.57 1.6-.88 0-1.58-.7-1.58-1.5s.7-1.5 1.56-1.5zm0 3.98c.82 0 1.53.7 1.53 1.58 0 .9-.7 1.6-1.57 1.6-.88 0-1.58-.7-1.58-1.5s.7-1.5 1.56-1.5zm-4.08-11.9c.87 0 1.57.7 1.57 1.57 0 .87-.7 1.57-1.57 1.57S46 15.93 46 15.07c0-.87.7-1.57 1.56-1.57zm-8.5-.2c.86 0 1.57.7 1.57 1.56 0 .8-.7 1.5-1.57 1.5-.87 0-1.57-.7-1.57-1.6 0-.9.7-1.6 1.5-1.6zm0 4.03c.86 0 1.57.7 1.57 1.57 0 .87-.7 1.57-1.57 1.57-.87 0-1.57-.7-1.57-1.57 0-.86.7-1.57 1.5-1.57zm-4-8.06c.85 0 1.56.7 1.56 1.57 0 .86-.8 1.56-1.6 1.56-.9 0-1.6-.7-1.6-1.57 0-.87.7-1.57 1.5-1.57zm0 4.04c.85 0 1.56.7 1.56 1.56 0 .8-.8 1.5-1.6 1.5-.9 0-1.6-.7-1.6-1.6 0-.9.7-1.6 1.5-1.6zm0 4.03c.85 0 1.56.7 1.56 1.57 0 .87-.8 1.57-1.6 1.57-.9 0-1.6-.7-1.6-1.56 0-.86.7-1.57 1.5-1.57zm0 4.04c.85 0 1.56.7 1.56 1.58 0 .87-.8 1.57-1.6 1.57-.9 0-1.6-.7-1.6-1.56 0-.87.7-1.58 1.5-1.58zm-4.27-8.07c.87 0 1.57.7 1.57 1.56 0 .86-.7 1.56-1.57 1.56-.86 0-1.56-.7-1.56-1.57 0-.87.7-1.57 1.55-1.57zm0 4.03c.87 0 1.57.7 1.57 1.57 0 .87-.7 1.57-1.57 1.57-.86 0-1.56-.7-1.56-1.6 0-.9.7-1.6 1.55-1.6zm0 4.04c.87 0 1.57.7 1.57 1.5s-.7 1.5-1.57 1.5c-.86 0-1.56-.7-1.56-1.6 0-.9.7-1.6 1.55-1.6zm0 4c.87 0 1.57.7 1.57 1.6 0 .8-.7 1.5-1.57 1.5-.86 0-1.56-.7-1.56-1.6 0-.9.7-1.6 1.55-1.6zM26.3 9.2c.87 0 1.57.7 1.57 1.57 0 .86-.7 1.56-1.57 1.56-.86 0-1.57-.7-1.57-1.57 0-.87.7-1.57 1.57-1.57zm0 4.04c.87 0 1.57.7 1.57 1.6 0 .86-.7 1.56-1.57 1.56-.86 0-1.57-.7-1.57-1.57 0-.87.7-1.57 1.57-1.57zm0 4.06c.87 0 1.57.7 1.57 1.57 0 .9-.7 1.6-1.57 1.6-.86 0-1.57-.7-1.57-1.57 0-.85.7-1.56 1.57-1.56zm0 4.04c.87 0 1.57.7 1.57 1.58 0 .87-.7 1.57-1.57 1.57-.86 0-1.57-.7-1.57-1.6 0-.9.7-1.6 1.57-1.6zm-4.04-8.1c.87 0 1.57.7 1.57 1.6 0 .85-.7 1.55-1.57 1.55-.86 0-1.57-.7-1.57-1.6 0-.9.7-1.6 1.5-1.6zm0 4.06c.87 0 1.57.7 1.57 1.57 0 .9-.7 1.6-1.57 1.6-.86 0-1.57-.7-1.57-1.58 0-.9.7-1.6 1.5-1.6z"/>
  </g>
</svg>
