<svg xmlns="http://www.w3.org/2000/svg" width="132" height="69">
  <g fill="#363636">
    <path d="M12.05.26C6.5.76 1.85 1.86.58 2.93c-.73.62-.73.62-.24 1.16.66.7 3.72 1.6 7.26 2.2 4 .6 12.5.7 13.7 0 1.23-.7 1.64-1.4 1.64-3 0-1.7-.62-2.4-2.22-2.9-1.45-.4-5.78-.5-8.67-.3zM25.77.5c-.12.27-.25 2.1-.25 4.1 0 4.06.15 3.78-2.2 3.93l-1.03.08-.2 2.6-.1 2.6-1.2.3c-2.6.7-4 2.6-3.8 5.3.1 1.9 1 3.4 2.6 4.1 1.1.5 1.5.6 11.2.6 5.5 0 10.1.1 10.2.2 0 .1-1.1 9.4-2.6 20.64-1.5 11.23-2.7 21-2.7 21.67-.1 1.6.8 2.6 2.3 2.6 1.22 0 2-.65 2.3-1.9.13-.5 1.5-10.35 3.02-21.84 1.52-11.5 2.85-20.9 2.92-20.9.1 0 1.1 1.4 2.2 3.13 2.92 4.6 2.4 4.3 7.62 4.3h4.33v5.6l-5.16.1c-4.7.06-5.2.1-5.87.6-1.57 1.16-1.62 1.42-1.62 11 0 9.5.04 9.77 1.54 11.03l.85.7h31.4l.84-.7C83.96 59 84 58.73 84 49.2c0-9.6-.05-9.84-1.63-11-.68-.5-1.17-.57-5.9-.64l-5.12-.08V31.8h4.36c5.2 0 4.6.3 7.6-4.32 1.1-1.72 2.1-3.13 2.2-3.13 0 0 1.4 9.4 2.9 20.85 1.5 11.5 2.9 21.3 3 21.83.3 1.24 1.1 1.9 2.3 1.9 1.5 0 2.4-1 2.4-2.6 0-.7-1.23-10.48-2.7-21.7-1.43-11.2-2.6-20.46-2.53-20.62.04-.1 4.63-.1 10.2-.1 9.75 0 10.1 0 11.2-.52 1.56-.72 2.46-2.14 2.6-4.06.2-2.7-1.2-4.63-3.8-5.3l-1.1-.24-.15-2.58-.13-2.54-1.03-.02c-2.37-.12-2.2.16-2.2-3.9 0-2-.14-3.82-.27-4.1-.2-.36-.53-.5-1.36-.5-.6 0-1.22.14-1.4.3-.2.2-.3 1.48-.3 3.95s-.1 3.72-.3 3.92c-.2.2-.9.3-1.65.3-1.65 0-1.68.07-1.68 3.13V14h-67v-2.3c0-3.02-.02-3.1-1.65-3.1-.75 0-1.47-.1-1.65-.3-.2-.2-.3-1.44-.3-3.9s-.1-3.8-.32-4c-.18-.15-.8-.3-1.42-.3-.82 0-1.16.15-1.37.5zm42.85 40.1c2.9.9 5.4 3.4 6.16 6.18.44 1.54.3 4.2-.28 5.78-.7 1.87-2.7 4-4.57 4.94-1.3.64-1.75.7-3.92.7-2.1 0-2.6-.06-3.9-.7-1.9-.93-3.8-3.07-4.5-4.94-.6-1.57-.7-4.24-.3-5.78.8-2.73 3.3-5.27 6.1-6.17 2.1-.6 3.3-.6 5.4 0z"/>
    <path d="M63.8 44.44c-2.04.92-3.5 3.65-3.07 5.73.77 3.67 4.82 5.55 8 3.7 1.98-1.16 2.98-3.55 2.44-5.78-.57-2.4-2.73-4.2-5.16-4.2-.6 0-1.6.2-2.2.5zM36.1.14c-3.93.68-4.52 1.15-4.52 3.46 0 1.82.46 2.4 2.27 2.95 1.55.47 7.17.52 10.5.13 6.86-.82 11.32-2.54 9.7-3.75-1.27-.9-4.9-1.88-9.06-2.4-2.5-.3-8-.53-8.9-.37zm53.38.12c-6.3.6-11.86 2.08-11.86 3.18 0 1.73 7.84 3.47 15.63 3.5 5.8 0 7.2-.64 7.2-3.34 0-1.83-.62-2.62-2.38-3.1-1.65-.4-5.67-.5-8.6-.24zm23.3.02c-1.78.23-3.02.77-3.43 1.5-.4.76-.3 2.9.15 3.57.93 1.3 1.65 1.46 7.07 1.46 3.66 0 5.8-.1 7.86-.4 3.54-.6 6.6-1.5 7.25-2.2.5-.5.5-.5-.23-1.1C130.1 1.8 125.5.8 119.53.3c-3.48-.3-4.48-.3-6.75 0z"/>
  </g>
</svg>
