<svg xmlns="http://www.w3.org/2000/svg" width="32" height="32">
  <path fill="#FFF" d="M16 0C7.16 0 0 7.16 0 16s7.16 16 16 16 16-7.16 16-16S24.84 0 16 0zm7.94 12.8c-.25 6.52-3.46 10.84-11 10.7h-.47c-.45 0-4.55-.43-5.35-1.8 2.48.18 4.25-.42 5.12-1.15-1.05-.3-2.92-.46-3.25-2.85.34.1.6.23 1.3.12-1.35-.82-2.8-1.52-2.7-3.65.3.32 1.15.52 1.45.46-.77-.23-2.15-3.24-.97-4.78 1.96 1.8 4.05 3.48 7.8 3.64.2-2.25 1.22-3.7 3.15-4.36 1.84-.48 3.25.26 3.9 1.14l2.2-.7c0 .84-.58 1.47-.94 1.7.75.2 1.42-.45 1.42-.45-.18.96-1.1 1.72-1.7 1.95z"/>
</svg>
