<svg xmlns="http://www.w3.org/2000/svg" width="171" height="195"><g fill="#FFF"><path d="M77.7 174.64c-.1-.13-10.5-13-12.62-15.76-1.32-1.73-3.3-2.68-5.6-2.68-2.55 0-4.82 1.17-5.5 1.55l-5.5 2.74c-1.76-.5-5.57-2-9.27-6.3-3.2-3.9-3.2-9-3-11.1l5.9-5.9c3.1-2.7 2.5-6.5 1.3-8.5l-.2-.3L28.4 110c-1-1.26-2.47-1.94-4.18-1.94-2.85 0-5.88 1.97-6.76 2.6-10.9 7.74-11.6 14.54-11.66 15.3v.4l.06.4c6.4 35.74 26.03 51.15 35.45 58.56 1.2.9 2.2 1.68 2.9 2.3C50.8 193.37 58 194 60.8 194c2.38 0 4.48-.4 6.1-1.2 4.36-2.1 9.42-8 10.86-9.8 2.5-3.06 1.28-6.6.17-8.2l-.16-.2zM63.8 186.5c-.5.25-1.57.5-3.08.5-1.56 0-7.03-.33-11.94-4.63-.86-.75-1.92-1.58-3.14-2.55-8.7-6.83-26.73-21-32.78-53.68.3-.98 1.83-4.94 8.62-9.77.65-.45 1.5-.9 2.12-1.14 2.83 3.57 11.4 14.4 13.5 17.03l-7.53 7.52-.2 1.06c-.08.42-1.9 10.4 4.52 17.94 6.2 7.35 13.2 8.66 14.5 8.85l1.1.16 7.6-3.9.2-.1c.3-.2 1.3-.7 2.1-.7h.1c2.1 2.8 11.1 13.9 12.5 15.6-2.6 3.1-6.2 6.7-8.3 7.7zm74.05-120.68c5.5-5.17 7.16-11.97 5.03-20.78-.2-.86-.85-1.54-1.7-1.8-.83-.26-1.75-.06-2.4.53l-8.22 7.4c-1.44-.8-3.68-2.45-4.47-5.33l6.8-6.73c.9-.9 1-2.4.1-3.4l-.2-.2c-.2-.2-.5-.4-.7-.5-.2-.1-4-2.1-8.9-2.1-4.7 0-8.9 2-12 5.6-6 7-4.6 15.1-3.6 18.5l-3.5 3.5L94 51.1l4.7-3.28-20.02-13.7-10.6 10.6 13.72 20 3.26-4.7 9.24 10.3-3.3 3.3c-1.5-.47-3.88-1.05-6.66-1.05-5.43 0-10.24 2.17-13.96 6.36-.27.4-6.6 8.2-2.75 18.7.28.8.93 1.4 1.72 1.6.8.2 1.65 0 2.27-.5l8.3-7.25c1.32.55 3.62 2.06 4.65 5.9l-7.38 7.5c-.7.67-.9 1.6-.7 2.47s.9 1.53 1.8 1.74c.1 0 2.7.6 6.1.6 6.8 0 12.1-2.3 15.2-6.6 3.3-4.6 4.1-9.4 4-13.1l16.2 16.2.1.1c1.5 1.22 4.3 2.7 7.4 2.7 2.23 0 4.63-.76 6.85-2.85l5.5-5.5.1-.13c5-5.33 2.26-11.7.1-14.3l-16.87-17c1 .1 2.1.2 3.3.2 4.9 0 8.65-1.2 11.22-3.63zm-53.3-13.84l-2.73 3.95-7.28-10.63 4.73-4.73 10.63 7.28-3.95 2.73 14.8 13.3-4.1 4.08 1.2-1.2L84.55 52zM98.1 85.5c.12.3 2.63 7.75-2.3 14.53-2.8 3.8-7.76 4.52-11.42 4.5l4.7-4.78c.57-.57.83-1.4.7-2.18-1.8-10.15-9.76-11.5-10.1-11.54-.72-.1-1.47.1-2.02.6l-6.2 5.42c-.53-5.56 2.4-9.5 2.75-9.93 2.8-3.03 6.2-4.57 10.2-4.57 3.5 0 6.3 1.2 6.3 1.22 1 .44 2.1.24 2.8-.5l19-19c.8-.73 1-1.82.6-2.76 0 0-3.5-8.3 2.2-14.8 2.2-2.5 5-3.8 8.2-3.8 1.3 0 2.4.2 3.4.5l-5 5c-.5.6-.8 1.3-.7 2.1 1 8.3 9 11.1 9.3 11.2.9.3 1.8.1 2.5-.5l6.1-5.4c.4 4.9-1 8.6-4.3 11.7-2 1.9-5.33 2.3-7.8 2.3-3.7 0-6.93-.9-7-.9-.83-.2-1.8 0-2.4.7L98.7 82.9c-.68.7-.9 1.7-.6 2.6zm5.52 1.84zm-.2-1.12l.04.16-.03-.16zm33.1 10.86l-5.47 5.47c-3.25 2.98-6.9.44-7.58-.08l-18.64-18.65 14.94-15.07-2.04 2.05 18.7 18.7c.47.6 3.1 4.3.1 7.58zm-15.2-28.05zm-.85-.15h.07-.07z"/><path d="M104.16 6c-36.4 0-65.92 29.52-65.92 65.92 0 33.52 25.02 61.18 57.4 65.36v26.22s57.44-21.24 71.97-73.62l.3-.8c.1-.44.2-.86.4-1.3l.2-.76c1.2-4.85 1.8-9.9 1.8-15.1C170.1 35.52 140.6 6 104.2 6zm57.35 79.42v.2l-.1.53-.3 1.16-.1.4-.1.4c-5.5 20.1-18.5 37.7-38.5 52.5-7.3 5.5-14.4 9.5-19.7 12.2v-21.6l-6.1-.7c-29.2-3.8-51.3-28.9-51.3-58.4 0-32.6 26.4-59 58.9-59s59 26.4 59 58.9c0 4.5-.5 9-1.5 13.5z"/></g><path fill="#3A3A3A" d="M54.58 188c-2.8 0-10-.62-16.55-6.37-.72-.62-1.7-1.4-2.86-2.3-9.42-7.4-29.04-22.82-35.45-58.55l-.07-.4.02-.42c.05-.75.75-7.56 11.63-15.3.88-.63 3.9-2.6 6.76-2.6 1.7 0 3.2.68 4.18 1.93l14.67 18.5.3.3c1.2 1.9 1.9 5.7-1.2 8.4l-5.9 5.9c-.1 2.1-.2 7.2 3.1 11.1 3.7 4.3 7.5 5.8 9.3 6.2l5.5-2.8c.7-.4 3-1.6 5.5-1.6 2.3 0 4.3.9 5.6 2.7 2.1 2.7 12.5 15.6 12.6 15.7l.2.2c1.1 1.6 2.4 5.1-.1 8.2-1.4 1.8-6.5 7.7-10.9 9.8-1.6.7-3.7 1.1-6.1 1.1zM6.72 120.14c6.05 32.68 24.1 46.85 32.78 53.68 1.23.97 2.3 1.8 3.14 2.55 4.9 4.3 10.38 4.63 11.94 4.63 1.5 0 2.6-.25 3.08-.5 2.1-1 5.73-4.57 8.3-7.67h-.02c-1.4-1.73-10.35-12.83-12.5-15.63h-.08c-.74 0-1.8.48-2.07.65l-.3.1-7.7 3.84-1.1-.2c-1.4-.2-8.3-1.5-14.6-8.9-6.5-7.6-4.6-17.5-4.5-18l.2-1.1 7.5-7.5L17.3 109c-.6.23-1.5.7-2.1 1.14-6.8 4.83-8.4 8.8-8.6 9.77z"/><path fill="#F0C42E" d="M78.44 103.54c-3.45 0-6.06-.6-6.17-.62-.88-.2-1.58-.87-1.84-1.74s0-1.8.62-2.45l7.38-7.52c-1.03-3.8-3.33-5.3-4.65-5.9l-8.3 7.3c-.62.6-1.47.8-2.26.6-.8-.2-1.45-.8-1.73-1.5-3.9-10.4 2.4-18.3 2.7-18.6 3.7-4.1 8.5-6.3 13.9-6.3 2.7 0 5.1.6 6.6 1.1L101.5 51c-1-3.43-2.47-11.54 3.53-18.47 3.13-3.62 7.3-5.54 12-5.54 4.83 0 8.66 2 8.82 2.1.23.1.46.3.66.5l.2.2c.9 1 .9 2.5-.1 3.4l-6.7 6.7c.8 2.8 3.1 4.5 4.5 5.3l8.3-7.4c.7-.6 1.6-.8 2.5-.6.9.2 1.5.9 1.7 1.8 2.1 8.8.5 15.6-5 20.7-2.5 2.4-6.3 3.6-11.2 3.6-2.8 0-5.3-.4-6.8-.7L97.2 79.4c.8 3.2 1.7 10.64-3.4 17.6-3.13 4.3-8.4 6.56-15.25 6.56zm-.2-5c3.66 0 8.64-.72 11.4-4.5C94.6 87.24 92.1 79.8 92 79.5c-.32-.9-.1-1.92.58-2.6l18.5-18.66c.63-.64 1.56-.9 2.43-.65.1 0 3.3.8 7 .8 2.5 0 5.8-.4 7.8-2.3 3.3-3.1 4.7-6.8 4.3-11.7l-6 5.4c-.6.6-1.6.8-2.4.5-.3-.1-8.3-2.9-9.3-11.2-.1-.8.2-1.6.7-2.1l5.1-5c-1-.3-2.1-.4-3.3-.4-3.2 0-6 1.3-8.2 3.8-5.6 6.5-2.2 14.8-2.1 14.9.4.9.2 2-.5 2.7l-19 19c-.7.7-1.9.9-2.8.5 0 0-2.7-1.2-6.22-1.2-4 0-7.4 1.5-10.1 4.5-.34.4-3.3 4.4-2.75 9.9l6.2-5.4c.55-.5 1.3-.7 2-.6.35 0 8.3 1.4 10.1 11.5.14.8-.1 1.6-.7 2.2l-4.7 4.8z"/><path fill="#3A3A3A" d="M78.92 54.02l9.24 10.3 3.54-3.55-13.3-14.8-2.72 3.95L68.4 39.3l4.73-4.73 10.63 7.27-3.95 2.74 14.8 13.3 3.6-3.56-10.3-9.22 4.7-3.3-20-13.7L62 38.7l13.73 20m41.5 4.54c-1.43-.15-2.65-.36-3.53-.53l-2.03 2.1 18.7 18.7c.5.6 3.1 4.3.1 7.6l-5.5 5.5c-3.2 3-6.9.5-7.54 0L98.7 77.9l-1.57 1.52c.24 1.04.5 2.6.55 4.45l16.22 16.22.17.1c1.52 1.2 4.32 2.7 7.45 2.7 2.23-.1 4.63-.8 6.86-2.9l5.5-5.5.12-.1c5-5.4 2.25-11.7.1-14.3l-16.95-17z"/><path fill="#3A3A3A" d="M98.02 7c32.5 0 58.92 26.43 58.92 58.92 0 4.5-.52 9.05-1.57 13.5v.06l-.04.13-.12.6c0 .4-.1.8-.3 1.2l-.1.4v.4c-5.5 20.1-18.5 37.7-38.5 52.5-7.4 5.5-14.4 9.5-19.7 12.2v-21.5l-6.1-.8c-29.2-3.7-51.3-28.8-51.3-58.4 0-32.5 26.4-59 58.9-59m0-7c-36.5-.1-66 29.4-66 65.8 0 33.6 25.1 61.2 57.4 65.4v26.2s57.5-21.2 72-73.6l.2-.8.4-1.3.2-.8c1.2-4.9 1.8-9.9 1.8-15.1C164 29.5 134.5 0 98 0z"/></svg>